<?xml version="1.0" encoding="UTF-8"?>
<!DOCTYPE svg PUBLIC "-//W3C//DTD SVG 1.1//EN" "http://www.w3.org/Graphics/SVG/1.1/DTD/svg11.dtd">
<svg xmlns="http://www.w3.org/2000/svg" version="1.1" width="500px" height="500px" style="shape-rendering:geometricPrecision; text-rendering:geometricPrecision; image-rendering:optimizeQuality; fill-rule:evenodd; clip-rule:evenodd" xmlns:xlink="http://www.w3.org/1999/xlink">
<g><path style="opacity:0.845" fill="#321111" d="M 398.5,254.5 C 400.455,250.139 402.121,245.639 403.5,241C 403.361,239.699 402.695,238.866 401.5,238.5C 400.883,238.611 400.383,238.944 400,239.5C 399.51,238.207 399.343,236.873 399.5,235.5C 398.07,235.421 396.736,235.754 395.5,236.5C 394.259,233.856 392.259,233.023 389.5,234C 381.96,240.039 375.293,246.873 369.5,254.5C 368.5,254.5 367.5,254.5 366.5,254.5C 369.878,251.124 372.878,247.457 375.5,243.5C 380.317,239.26 385.317,235.26 390.5,231.5C 392.167,231.5 393.833,231.5 395.5,231.5C 395.5,232.5 395.5,233.5 395.5,234.5C 398.862,234.07 401.695,235.07 404,237.5C 404.369,240.877 404.369,244.21 404,247.5C 406.777,244.282 408.777,240.615 410,236.5C 411.763,225.466 410.263,214.966 405.5,205C 406.791,198.692 406.791,192.525 405.5,186.5C 404.34,178.519 401.506,171.185 397,164.5C 389.833,171 382.667,177.5 375.5,184C 371.871,183.89 368.204,183.724 364.5,183.5C 363.081,182.549 361.415,182.216 359.5,182.5C 360.739,181.788 361.239,180.788 361,179.5C 356.525,172.869 351.358,166.869 345.5,161.5C 345.565,161.062 345.399,160.728 345,160.5C 340.504,164.149 337.004,168.482 334.5,173.5C 330.27,178.211 328.27,183.544 328.5,189.5C 328.938,189.435 329.272,189.601 329.5,190C 322.319,193.349 316.985,198.516 313.5,205.5C 309.367,210.66 307.367,216.66 307.5,223.5C 307.467,231.092 310.133,237.425 315.5,242.5C 316.909,244.417 318.576,246.25 320.5,248C 324.434,250.464 328.434,252.631 332.5,254.5C 330.833,254.5 329.167,254.5 327.5,254.5C 320.955,251.285 315.289,246.952 310.5,241.5C 308.297,235.045 305.964,234.878 303.5,241C 304.925,246.017 307.258,250.517 310.5,254.5C 309.178,254.67 308.011,254.337 307,253.5C 303.997,250.009 302.164,246.009 301.5,241.5C 301.661,237.827 303.328,234.993 306.5,233C 303.181,214.471 309.347,199.971 325,189.5C 326.837,181.985 329.837,174.985 334,168.5C 336.69,164.31 340.19,160.976 344.5,158.5C 352.597,163.929 358.93,170.929 363.5,179.5C 366.949,180.767 370.449,181.767 374,182.5C 380.883,175.649 388.05,169.149 395.5,163C 397.367,162.289 398.867,162.789 400,164.5C 407.674,177.023 410.507,190.523 408.5,205C 415.319,219.271 415.152,233.438 408,247.5C 406.078,251.597 402.912,253.93 398.5,254.5 Z"/></g>
<g><path style="opacity:1" fill="#fbfaf9" d="M 405.5,186.5 C 405.588,195.232 403.255,203.232 398.5,210.5C 400.749,213.757 401.082,217.257 399.5,221C 398.724,223.995 397.557,226.828 396,229.5C 394.052,230.109 392.218,230.776 390.5,231.5C 385.317,235.26 380.317,239.26 375.5,243.5C 359.552,248.577 343.552,248.744 327.5,244C 322.256,241.797 317.422,238.964 313,235.5C 313.756,237.715 314.589,240.049 315.5,242.5C 310.133,237.425 307.467,231.092 307.5,223.5C 307.367,216.66 309.367,210.66 313.5,205.5C 319.537,215.014 328.204,218.848 339.5,217C 358.018,213.327 366.352,202.161 364.5,183.5C 368.204,183.724 371.871,183.89 375.5,184C 382.667,177.5 389.833,171 397,164.5C 401.506,171.185 404.34,178.519 405.5,186.5 Z"/></g>
<g><path style="opacity:1" fill="#e58e6c" d="M 345.5,161.5 C 351.358,166.869 356.525,172.869 361,179.5C 361.239,180.788 360.739,181.788 359.5,182.5C 355.935,181.534 352.435,181.534 349,182.5C 348.479,175.371 347.312,168.371 345.5,161.5 Z"/></g>
<g><path style="opacity:1" fill="#edaf7d" d="M 345.5,161.5 C 347.312,168.371 348.479,175.371 349,182.5C 352.435,181.534 355.935,181.534 359.5,182.5C 361.415,182.216 363.081,182.549 364.5,183.5C 366.352,202.161 358.018,213.327 339.5,217C 328.204,218.848 319.537,215.014 313.5,205.5C 316.985,198.516 322.319,193.349 329.5,190C 329.272,189.601 328.938,189.435 328.5,189.5C 330.292,188.691 332.292,188.191 334.5,188C 332.866,187.506 331.199,187.34 329.5,187.5C 330.769,182.693 332.436,178.027 334.5,173.5C 337.004,168.482 340.504,164.149 345,160.5C 345.399,160.728 345.565,161.062 345.5,161.5 Z"/></g>
<g><path style="opacity:1" fill="#eaad7d" d="M 399.5,198.5 C 398.928,196.745 398.094,195.078 397,193.5C 394.33,191.995 392.164,189.995 390.5,187.5C 392.146,182.915 393.479,178.248 394.5,173.5C 394.639,171.663 395.306,171.33 396.5,172.5C 401.481,181.466 402.648,190.799 400,200.5C 399.536,199.906 399.369,199.239 399.5,198.5 Z"/></g>
<g><path style="opacity:0.756" fill="#2d0d08" d="M 314.5,163.5 C 315.935,165.598 317.102,167.931 318,170.5C 319.579,172.041 321.413,173.208 323.5,174C 318.851,176.455 316.017,180.288 315,185.5C 314.057,180.23 311.224,176.396 306.5,174C 311.457,172.256 314.124,168.756 314.5,163.5 Z"/></g>
<g><path style="opacity:1" fill="#e3a452" d="M 314.5,168.5 C 315.584,170.815 317.251,172.648 319.5,174C 317.641,175.558 316.141,177.391 315,179.5C 314.208,177.413 313.041,175.579 311.5,174C 313.607,172.736 314.607,170.903 314.5,168.5 Z"/></g>
<g><path style="opacity:0.519" fill="#2d0c07" d="M 307.5,182.5 C 308.198,184.667 309.531,186.5 311.5,188C 309.513,189.319 308.346,191.152 308,193.5C 306.859,191.391 305.359,189.558 303.5,188C 305.439,186.568 306.772,184.735 307.5,182.5 Z"/></g>
<g><path style="opacity:1" fill="#f1eae7" d="M 334.5,173.5 C 332.436,178.027 330.769,182.693 329.5,187.5C 331.199,187.34 332.866,187.506 334.5,188C 332.292,188.191 330.292,188.691 328.5,189.5C 328.27,183.544 330.27,178.211 334.5,173.5 Z"/></g>
<g><path style="opacity:1" fill="#411f1c" d="M 394.5,173.5 C 393.479,178.248 392.146,182.915 390.5,187.5C 392.164,189.995 394.33,191.995 397,193.5C 398.094,195.078 398.928,196.745 399.5,198.5C 396.445,195.282 392.945,192.616 389,190.5C 388.937,184.191 390.77,178.524 394.5,173.5 Z"/></g>
<g><path style="opacity:1" fill="#353844" d="M 135.5,179.5 C 133.167,179.5 130.833,179.5 128.5,179.5C 128.5,180.5 128.5,181.5 128.5,182.5C 120.386,183.81 113.886,187.81 109,194.5C 108.731,191.72 109.898,189.554 112.5,188C 111.552,187.517 110.552,187.351 109.5,187.5C 109.369,186.624 109.702,185.957 110.5,185.5C 118.421,180.642 126.754,178.642 135.5,179.5 Z"/></g>
<g><path style="opacity:1" fill="#c69046" d="M 306.5,186.5 C 308.465,186.948 308.798,187.948 307.5,189.5C 306.614,188.675 306.281,187.675 306.5,186.5 Z"/></g>
<g><path style="opacity:0.506" fill="#271f1b" d="M 138.5,180.5 C 145.239,179.87 150.906,182.036 155.5,187C 162.845,188.522 166.845,193.022 167.5,200.5C 167.167,200.5 166.833,200.5 166.5,200.5C 165.932,196.763 164.265,193.596 161.5,191C 155.875,188.521 150.542,185.521 145.5,182C 143.231,181.242 141.064,181.409 139,182.5C 138.536,181.906 138.369,181.239 138.5,180.5 Z"/></g>
<g><path style="opacity:1" fill="#f3c59b" d="M 129.5,186.5 C 130.043,186.56 130.376,186.893 130.5,187.5C 129.903,190.971 129.236,194.305 128.5,197.5C 126.157,199.441 124.157,201.774 122.5,204.5C 120.717,202.977 120.051,200.977 120.5,198.5C 123.004,194.172 126.004,190.172 129.5,186.5 Z"/></g>
<g><path style="opacity:1" fill="#361414" d="M 329.5,192.5 C 343.688,192.168 348.188,198.501 343,211.5C 335.182,217.608 328.515,216.608 323,208.5C 321.062,201.389 323.229,196.056 329.5,192.5 Z"/></g>
<g><path style="opacity:1" fill="#efecec" d="M 330.5,195.5 C 331.833,195.5 333.167,195.5 334.5,195.5C 333.91,199.316 331.577,200.983 327.5,200.5C 327.31,198.041 328.31,196.374 330.5,195.5 Z"/></g>
<g><path style="opacity:0.999" fill="#3b4050" d="M 129.5,186.5 C 126.004,190.172 123.004,194.172 120.5,198.5C 119.833,199.5 119.167,200.5 118.5,201.5C 117.91,200.234 117.41,198.901 117,197.5C 115.085,200.235 113.918,203.235 113.5,206.5C 112.566,205.432 112.232,204.099 112.5,202.5C 112.631,201.761 112.464,201.094 112,200.5C 110.053,202.063 108.886,204.063 108.5,206.5C 107.167,208.167 107.167,209.833 108.5,211.5C 107.833,212.167 107.167,212.833 106.5,213.5C 105.349,211.221 104.349,208.888 103.5,206.5C 103.511,204.983 104.177,203.816 105.5,203C 103.866,202.506 102.199,202.34 100.5,202.5C 100.5,200.833 100.5,199.167 100.5,197.5C 102.105,192.896 105.105,189.562 109.5,187.5C 107.32,189.848 105.32,192.348 103.5,195C 104.369,196.869 105.535,197.369 107,196.5C 107.507,197.996 107.007,199.163 105.5,200C 106,200.5 106.5,201 107,201.5C 107.748,199.668 108.748,198.001 110,196.5C 109.069,201.308 109.903,201.641 112.5,197.5C 115.216,197.08 116.883,195.08 117.5,191.5C 119.265,188.971 121.265,186.638 123.5,184.5C 125.419,184.614 127.419,185.28 129.5,186.5 Z"/></g>
<g><path style="opacity:0.837" fill="#280604" d="M 294.5,196.5 C 295.376,196.369 296.043,196.702 296.5,197.5C 294.885,201.063 293.552,204.73 292.5,208.5C 295.315,211.172 297.648,214.338 299.5,218C 298.944,220.237 297.944,222.237 296.5,224C 293.378,225.904 290.045,226.571 286.5,226C 284.365,225.241 283.032,223.741 282.5,221.5C 285.371,212.515 289.371,204.182 294.5,196.5 Z M 289.5,213.5 C 296.702,218.229 296.035,221.229 287.5,222.5C 287.756,219.402 288.422,216.402 289.5,213.5 Z"/></g>
<g><path style="opacity:1" fill="#f2c7c7" d="M 405.5,186.5 C 406.791,192.525 406.791,198.692 405.5,205C 410.263,214.966 411.763,225.466 410,236.5C 408.777,240.615 406.777,244.282 404,247.5C 404.369,244.21 404.369,240.877 404,237.5C 401.695,235.07 398.862,234.07 395.5,234.5C 395.5,233.5 395.5,232.5 395.5,231.5C 393.833,231.5 392.167,231.5 390.5,231.5C 392.218,230.776 394.052,230.109 396,229.5C 397.557,226.828 398.724,223.995 399.5,221C 401.082,217.257 400.749,213.757 398.5,210.5C 403.255,203.232 405.588,195.232 405.5,186.5 Z"/></g>
<g><path style="opacity:0.843" fill="#290604" d="M 230.5,198.5 C 231.649,198.791 232.316,199.624 232.5,201C 229.03,207.149 225.53,213.315 222,219.5C 220.434,221.993 218.434,223.993 216,225.5C 213.491,224.171 211.658,222.171 210.5,219.5C 208.684,220.815 207.017,222.315 205.5,224C 204.056,224.781 202.723,224.614 201.5,223.5C 197.772,216.253 195.438,208.586 194.5,200.5C 195.5,200.5 196.5,200.5 197.5,200.5C 197.421,203.271 197.921,205.937 199,208.5C 200.339,212.511 202.172,216.178 204.5,219.5C 206.316,217.882 207.649,215.882 208.5,213.5C 202.587,202.249 205.753,198.249 218,201.5C 218.667,202.5 218.667,203.5 218,204.5C 216.258,207.4 214.758,210.4 213.5,213.5C 213.745,215.663 214.745,217.33 216.5,218.5C 222.161,212.504 226.828,205.837 230.5,198.5 Z M 210.5,204.5 C 213.774,204.628 213.941,205.961 211,208.5C 210.51,207.207 210.343,205.873 210.5,204.5 Z"/></g>
<g><path style="opacity:1" fill="#f6f5f5" d="M 336.5,199.5 C 338.467,199.261 340.301,199.594 342,200.5C 343.278,210.221 339.111,214.055 329.5,212C 326.793,210.136 325.959,207.636 327,204.5C 330.963,204.223 334.129,202.556 336.5,199.5 Z"/></g>
<g><path style="opacity:1" fill="#bba787" d="M 128.5,197.5 C 129.11,198.391 129.443,199.391 129.5,200.5C 124.467,202.567 122.633,206.233 124,211.5C 122.865,207.731 121.032,204.398 118.5,201.5C 119.167,200.5 119.833,199.5 120.5,198.5C 120.051,200.977 120.717,202.977 122.5,204.5C 124.157,201.774 126.157,199.441 128.5,197.5 Z"/></g>
<g><path style="opacity:1" fill="#371818" d="M 374.5,200.5 C 387.183,199.674 392.017,205.341 389,217.5C 382.297,225.399 375.63,225.399 369,217.5C 365.783,210.102 367.617,204.435 374.5,200.5 Z"/></g>
<g><path style="opacity:1" fill="#eabc92" d="M 136.5,202.5 C 136.196,204.796 135.196,205.129 133.5,203.5C 132.962,201.883 132.629,200.216 132.5,198.5C 133.5,198.5 134.5,198.5 135.5,198.5C 135.433,199.959 135.766,201.292 136.5,202.5 Z"/></g>
<g><path style="opacity:1" fill="#3e4d6a" d="M 135.5,179.5 C 136.391,180.11 137.391,180.443 138.5,180.5C 138.369,181.239 138.536,181.906 139,182.5C 141.064,181.409 143.231,181.242 145.5,182C 150.542,185.521 155.875,188.521 161.5,191C 164.265,193.596 165.932,196.763 166.5,200.5C 164.088,210.955 158.755,219.955 150.5,227.5C 157.679,224.445 162.512,218.778 165,210.5C 164.656,216.716 163.156,222.716 160.5,228.5C 155.619,230.875 151.452,234.209 148,238.5C 147.536,237.906 147.369,237.239 147.5,236.5C 151.589,234.586 151.423,233.253 147,232.5C 146.578,230.645 146.078,228.811 145.5,227C 148.304,221.863 149.137,216.363 148,210.5C 147.781,211.938 147.281,213.271 146.5,214.5C 145.831,212.369 145.165,210.369 144.5,208.5C 144.443,207.391 144.11,206.391 143.5,205.5C 143.631,204.761 143.464,204.094 143,203.5C 140.536,204.909 138.369,204.576 136.5,202.5C 135.766,201.292 135.433,199.959 135.5,198.5C 134.5,198.5 133.5,198.5 132.5,198.5C 132.629,200.216 132.962,201.883 133.5,203.5C 131.938,203.267 130.605,202.6 129.5,201.5C 129.5,201.167 129.5,200.833 129.5,200.5C 129.443,199.391 129.11,198.391 128.5,197.5C 129.236,194.305 129.903,190.971 130.5,187.5C 130.376,186.893 130.043,186.56 129.5,186.5C 127.419,185.28 125.419,184.614 123.5,184.5C 121.265,186.638 119.265,188.971 117.5,191.5C 115.844,193.46 114.177,195.46 112.5,197.5C 109.903,201.641 109.069,201.308 110,196.5C 108.748,198.001 107.748,199.668 107,201.5C 106.5,201 106,200.5 105.5,200C 107.007,199.163 107.507,197.996 107,196.5C 105.535,197.369 104.369,196.869 103.5,195C 105.32,192.348 107.32,189.848 109.5,187.5C 110.552,187.351 111.552,187.517 112.5,188C 109.898,189.554 108.731,191.72 109,194.5C 113.886,187.81 120.386,183.81 128.5,182.5C 128.5,181.5 128.5,180.5 128.5,179.5C 130.833,179.5 133.167,179.5 135.5,179.5 Z"/></g>
<g><path style="opacity:1" fill="#b08868" d="M 117.5,191.5 C 116.883,195.08 115.216,197.08 112.5,197.5C 114.177,195.46 115.844,193.46 117.5,191.5 Z"/></g>
<g><path style="opacity:1" fill="#be9674" d="M 131.5,190.5 C 133.105,192.308 133.439,194.308 132.5,196.5C 131.534,194.604 131.201,192.604 131.5,190.5 Z"/></g>
<g><path style="opacity:1" fill="#edeaea" d="M 376.5,202.5 C 377.5,202.5 378.5,202.5 379.5,202.5C 379.465,207.378 377.132,208.711 372.5,206.5C 373.549,204.784 374.882,203.451 376.5,202.5 Z"/></g>
<g><path style="opacity:1" fill="#e7ab7d" d="M 112.5,202.5 C 111.698,203.952 111.198,205.618 111,207.5C 109.539,208.883 108.706,208.549 108.5,206.5C 108.886,204.063 110.053,202.063 112,200.5C 112.464,201.094 112.631,201.761 112.5,202.5 Z"/></g>
<g><path style="opacity:1" fill="#a38b78" d="M 129.5,201.5 C 130.605,202.6 131.938,203.267 133.5,203.5C 135.196,205.129 136.196,204.796 136.5,202.5C 138.369,204.576 140.536,204.909 143,203.5C 143.464,204.094 143.631,204.761 143.5,205.5C 141.708,205.366 140.042,205.699 138.5,206.5C 136.833,206.5 135.167,206.5 133.5,206.5C 133.737,207.791 133.404,208.791 132.5,209.5C 132.279,208.265 131.612,207.265 130.5,206.5C 131.025,205.808 131.692,205.308 132.5,205C 130.866,204.506 129.199,204.34 127.5,204.5C 128.551,203.778 129.218,202.778 129.5,201.5 Z"/></g>
<g><path style="opacity:1" fill="#4d3d30" d="M 127.5,204.5 C 129.199,204.34 130.866,204.506 132.5,205C 131.692,205.308 131.025,205.808 130.5,206.5C 131.612,207.265 132.279,208.265 132.5,209.5C 131.5,209.5 130.5,209.5 129.5,209.5C 129.169,207.678 128.502,206.011 127.5,204.5 Z"/></g>
<g><path style="opacity:0.833" fill="#290604" d="M 243.5,206.5 C 250.092,205.583 254.092,208.416 255.5,215C 253.723,216.804 251.556,217.637 249,217.5C 246.502,217.083 244.002,216.749 241.5,216.5C 241.351,217.552 241.517,218.552 242,219.5C 244.134,221.484 246.634,222.818 249.5,223.5C 250.386,224.325 250.719,225.325 250.5,226.5C 241.608,227.097 237.108,223.097 237,214.5C 239.001,211.669 241.167,209.003 243.5,206.5 Z M 245.5,210.5 C 247.346,210.222 248.68,210.889 249.5,212.5C 247.579,213.641 245.579,213.808 243.5,213C 244.381,212.292 245.047,211.458 245.5,210.5 Z"/></g>
<g><path style="opacity:0.861" fill="#290604" d="M 266.5,206.5 C 273.237,205.195 277.237,207.862 278.5,214.5C 277.91,215.799 276.91,216.632 275.5,217C 271.812,217.45 268.146,217.283 264.5,216.5C 264.351,217.552 264.517,218.552 265,219.5C 267.143,221.471 269.643,222.804 272.5,223.5C 273.386,224.325 273.719,225.325 273.5,226.5C 258.087,224.346 255.753,217.679 266.5,206.5 Z M 268.5,210.5 C 270.716,210.275 272.383,211.108 273.5,213C 271.167,213.667 268.833,213.667 266.5,213C 267.381,212.292 268.047,211.458 268.5,210.5 Z"/></g>
<g><path style="opacity:1" fill="#f4c79d" d="M 118.5,201.5 C 121.032,204.398 122.865,207.731 124,211.5C 122.633,206.233 124.467,202.567 129.5,200.5C 129.5,200.833 129.5,201.167 129.5,201.5C 129.218,202.778 128.551,203.778 127.5,204.5C 128.502,206.011 129.169,207.678 129.5,209.5C 130.5,209.5 131.5,209.5 132.5,209.5C 133.404,208.791 133.737,207.791 133.5,206.5C 135.167,206.5 136.833,206.5 138.5,206.5C 134.881,209.452 131.548,212.785 128.5,216.5C 127.186,215.687 126.019,214.687 125,213.5C 124.91,215.768 126.077,217.268 128.5,218C 127.235,222.535 128.569,226.202 132.5,229C 131.062,229.219 129.729,229.719 128.5,230.5C 129.325,231.386 130.325,231.719 131.5,231.5C 133.167,231.5 134.833,231.5 136.5,231.5C 137.833,231.5 139.167,231.5 140.5,231.5C 140.5,231.833 140.5,232.167 140.5,232.5C 138.11,233.891 136.443,235.891 135.5,238.5C 128.953,241.894 121.953,244.228 114.5,245.5C 112.642,243.117 111.308,240.45 110.5,237.5C 112.279,235.537 113.946,233.371 115.5,231C 119.628,229.436 123.628,227.602 127.5,225.5C 123.795,223.314 119.795,222.314 115.5,222.5C 115.54,219.119 115.207,215.786 114.5,212.5C 116.081,210.858 116.747,208.858 116.5,206.5C 115.5,206.5 114.5,206.5 113.5,206.5C 113.918,203.235 115.085,200.235 117,197.5C 117.41,198.901 117.91,200.234 118.5,201.5 Z"/></g>
<g><path style="opacity:1" fill="#f8f7f7" d="M 381.5,207.5 C 383.199,207.34 384.866,207.506 386.5,208C 388.051,218.408 383.718,222.074 373.5,219C 371.887,216.772 371.22,214.272 371.5,211.5C 375.567,211.794 378.9,210.46 381.5,207.5 Z"/></g>
<g><path style="opacity:1" fill="#69594d" d="M 112.5,202.5 C 112.232,204.099 112.566,205.432 113.5,206.5C 114.5,206.5 115.5,206.5 116.5,206.5C 116.747,208.858 116.081,210.858 114.5,212.5C 113.778,212.918 113.278,213.584 113,214.5C 112.735,212.349 111.735,210.682 110,209.5C 108.97,209.836 108.47,210.503 108.5,211.5C 107.167,209.833 107.167,208.167 108.5,206.5C 108.706,208.549 109.539,208.883 111,207.5C 111.198,205.618 111.698,203.952 112.5,202.5 Z"/></g>
<g><path style="opacity:0.235" fill="#282121" d="M 100.5,197.5 C 100.5,199.167 100.5,200.833 100.5,202.5C 102.199,202.34 103.866,202.506 105.5,203C 104.177,203.816 103.511,204.983 103.5,206.5C 100.806,208.527 98.4728,210.861 96.5,213.5C 95.4479,211.744 93.7812,211.077 91.5,211.5C 92.7135,208.447 94.8801,206.113 98,204.5C 98.1558,201.809 98.9891,199.476 100.5,197.5 Z"/></g>
<g><path style="opacity:1" fill="#321010" d="M 346.5,215.5 C 348.516,218.958 351.016,219.291 354,216.5C 356.785,220.413 359.618,220.413 362.5,216.5C 366.165,220.072 367.332,224.405 366,229.5C 365.768,232.738 364.268,235.238 361.5,237C 356.618,238.555 351.618,238.888 346.5,238C 340.891,234.723 339.058,229.89 341,223.5C 342.273,220.403 344.107,217.736 346.5,215.5 Z"/></g>
<g><path style="opacity:1" fill="#eeb790" d="M 143.5,205.5 C 144.11,206.391 144.443,207.391 144.5,208.5C 144.792,218.854 140.459,226.521 131.5,231.5C 130.325,231.719 129.325,231.386 128.5,230.5C 129.729,229.719 131.062,229.219 132.5,229C 128.569,226.202 127.235,222.535 128.5,218C 126.077,217.268 124.91,215.768 125,213.5C 126.019,214.687 127.186,215.687 128.5,216.5C 131.548,212.785 134.881,209.452 138.5,206.5C 140.042,205.699 141.708,205.366 143.5,205.5 Z"/></g>
<g><path style="opacity:0.441" fill="#28211f" d="M 96.5,213.5 C 97.4523,215.112 97.7856,216.612 97.5,218C 95.1273,222.244 93.4607,226.744 92.5,231.5C 92.3347,235.182 92.5014,238.848 93,242.5C 94.5916,244.202 96.0916,245.868 97.5,247.5C 95.1329,246.921 93.2995,245.588 92,243.5C 91.3333,235.833 91.3333,228.167 92,220.5C 93.0259,217.761 94.5259,215.428 96.5,213.5 Z"/></g>
<g><path style="opacity:1" fill="#edb48b" d="M 114.5,212.5 C 115.207,215.786 115.54,219.119 115.5,222.5C 119.795,222.314 123.795,223.314 127.5,225.5C 123.628,227.602 119.628,229.436 115.5,231C 113.946,233.371 112.279,235.537 110.5,237.5C 104.315,230.337 102.982,222.337 106.5,213.5C 107.167,212.833 107.833,212.167 108.5,211.5C 108.47,210.503 108.97,209.836 110,209.5C 111.735,210.682 112.735,212.349 113,214.5C 113.278,213.584 113.778,212.918 114.5,212.5 Z"/></g>
<g><path style="opacity:1" fill="#2a2a32" d="M 167.5,201.5 C 170.299,209.413 172.633,217.58 174.5,226C 174.443,230.121 173.109,233.621 170.5,236.5C 173.331,229.474 173.165,222.474 170,215.5C 170.037,222.755 167.371,228.755 162,233.5C 161.08,233.07 160.247,232.736 159.5,232.5C 163.587,228.327 166.087,223.327 167,217.5C 167.333,219.167 167.667,220.833 168,222.5C 168.675,215.472 168.508,208.472 167.5,201.5 Z"/></g>
<g><path style="opacity:1" fill="#e75050" d="M 353.5,224.5 C 357.167,224.5 360.833,224.5 364.5,224.5C 363.716,235.083 358.05,238.916 347.5,236C 345.981,234.649 344.648,233.149 343.5,231.5C 346.32,228.333 349.653,225.999 353.5,224.5 Z"/></g>
<g><path style="opacity:1" fill="#3e4860" d="M 103.5,206.5 C 104.349,208.888 105.349,211.221 106.5,213.5C 102.982,222.337 104.315,230.337 110.5,237.5C 111.308,240.45 112.642,243.117 114.5,245.5C 118.67,246.457 123.003,246.457 127.5,245.5C 127.5,246.833 127.5,248.167 127.5,249.5C 126.713,251.104 125.38,251.771 123.5,251.5C 119.597,248.626 116.097,248.959 113,252.5C 111.301,251.594 109.467,251.261 107.5,251.5C 107.369,250.761 107.536,250.094 108,249.5C 109.183,250.731 110.349,250.731 111.5,249.5C 107.986,248.486 106.152,246.152 106,242.5C 105.313,244.568 105.48,246.568 106.5,248.5C 104.994,249.747 103.494,249.747 102,248.5C 101.333,245.167 100.667,241.833 100,238.5C 99.3333,239.833 98.6667,239.833 98,238.5C 97.5026,235.854 97.3359,233.187 97.5,230.5C 95.7839,230.629 94.1172,230.962 92.5,231.5C 93.4607,226.744 95.1273,222.244 97.5,218C 97.7856,216.612 97.4523,215.112 96.5,213.5C 98.4728,210.861 100.806,208.527 103.5,206.5 Z"/></g>
<g><path style="opacity:1" fill="#484754" d="M 144.5,208.5 C 145.165,210.369 145.831,212.369 146.5,214.5C 147.281,213.271 147.781,211.938 148,210.5C 149.137,216.363 148.304,221.863 145.5,227C 146.078,228.811 146.578,230.645 147,232.5C 151.423,233.253 151.589,234.586 147.5,236.5C 146.833,236.833 146.167,237.167 145.5,237.5C 147.19,233.813 146.69,233.146 144,235.5C 142.209,238.993 140.876,242.659 140,246.5C 139.779,242.43 140.279,238.43 141.5,234.5C 142.573,233.749 142.74,232.749 142,231.5C 141.617,232.056 141.117,232.389 140.5,232.5C 140.5,232.167 140.5,231.833 140.5,231.5C 143.1,228.968 144.6,225.968 145,222.5C 141.962,225.369 139.129,228.369 136.5,231.5C 134.833,231.5 133.167,231.5 131.5,231.5C 140.459,226.521 144.792,218.854 144.5,208.5 Z"/></g>
<g><path style="opacity:1" fill="#d19067" d="M 140.5,231.5 C 139.167,231.5 137.833,231.5 136.5,231.5C 139.129,228.369 141.962,225.369 145,222.5C 144.6,225.968 143.1,228.968 140.5,231.5 Z"/></g>
<g><path style="opacity:0.999" fill="#2e3345" d="M 107.5,251.5 C 103.55,251.512 100.216,250.179 97.5,247.5C 96.0916,245.868 94.5916,244.202 93,242.5C 92.5014,238.848 92.3347,235.182 92.5,231.5C 94.1172,230.962 95.7839,230.629 97.5,230.5C 97.3359,233.187 97.5026,235.854 98,238.5C 98.6667,239.833 99.3333,239.833 100,238.5C 100.667,241.833 101.333,245.167 102,248.5C 103.494,249.747 104.994,249.747 106.5,248.5C 105.48,246.568 105.313,244.568 106,242.5C 106.152,246.152 107.986,248.486 111.5,249.5C 110.349,250.731 109.183,250.731 108,249.5C 107.536,250.094 107.369,250.761 107.5,251.5 Z"/></g>
<g><path style="opacity:1" fill="#ecad7b" d="M 401.5,238.5 C 399.878,244.412 397.211,249.745 393.5,254.5C 385.5,254.5 377.5,254.5 369.5,254.5C 375.293,246.873 381.96,240.039 389.5,234C 392.259,233.023 394.259,233.856 395.5,236.5C 396.736,235.754 398.07,235.421 399.5,235.5C 399.343,236.873 399.51,238.207 400,239.5C 400.383,238.944 400.883,238.611 401.5,238.5 Z"/></g>
<g><path style="opacity:1" fill="#836450" d="M 141.5,234.5 C 141.565,234.062 141.399,233.728 141,233.5C 139.25,235.424 137.417,237.091 135.5,238.5C 136.443,235.891 138.11,233.891 140.5,232.5C 141.117,232.389 141.617,232.056 142,231.5C 142.74,232.749 142.573,233.749 141.5,234.5 Z"/></g>
<g><path style="opacity:1" fill="#eca374" d="M 141.5,234.5 C 140.279,238.43 139.779,242.43 140,246.5C 140.876,242.659 142.209,238.993 144,235.5C 146.69,233.146 147.19,233.813 145.5,237.5C 144.167,240.833 142.833,244.167 141.5,247.5C 137.998,250.337 133.998,251.67 129.5,251.5C 128.833,250.833 128.167,250.167 127.5,249.5C 127.5,248.167 127.5,246.833 127.5,245.5C 123.003,246.457 118.67,246.457 114.5,245.5C 121.953,244.228 128.953,241.894 135.5,238.5C 137.417,237.091 139.25,235.424 141,233.5C 141.399,233.728 141.565,234.062 141.5,234.5 Z"/></g>
<g><path style="opacity:1" fill="#323647" d="M 166.5,200.5 C 166.833,200.5 167.167,200.5 167.5,200.5C 167.5,200.833 167.5,201.167 167.5,201.5C 168.508,208.472 168.675,215.472 168,222.5C 167.667,220.833 167.333,219.167 167,217.5C 166.087,223.327 163.587,228.327 159.5,232.5C 160.247,232.736 161.08,233.07 162,233.5C 167.371,228.755 170.037,222.755 170,215.5C 173.165,222.474 173.331,229.474 170.5,236.5C 169.739,237.391 168.739,238.058 167.5,238.5C 167.002,237.397 166.669,236.397 166.5,235.5C 159.746,237.539 156.746,241.872 157.5,248.5C 156.833,248.167 156.167,247.833 155.5,247.5C 155.048,244.797 154.381,242.13 153.5,239.5C 150.193,241.64 147.026,243.974 144,246.5C 143.027,248.392 142.36,250.392 142,252.5C 141.506,250.866 141.34,249.199 141.5,247.5C 142.833,244.167 144.167,240.833 145.5,237.5C 146.167,237.167 146.833,236.833 147.5,236.5C 147.369,237.239 147.536,237.906 148,238.5C 151.452,234.209 155.619,230.875 160.5,228.5C 163.156,222.716 164.656,216.716 165,210.5C 162.512,218.778 157.679,224.445 150.5,227.5C 158.755,219.955 164.088,210.955 166.5,200.5 Z"/></g>
<g><path style="opacity:0.979" fill="#f8f5f5" d="M 310.5,241.5 C 312.34,247.004 315.673,251.337 320.5,254.5C 317.167,254.5 313.833,254.5 310.5,254.5C 307.258,250.517 304.925,246.017 303.5,241C 305.964,234.878 308.297,235.045 310.5,241.5 Z"/></g>
<g><path style="opacity:1" fill="#f7caca" d="M 375.5,243.5 C 372.878,247.457 369.878,251.124 366.5,254.5C 355.167,254.5 343.833,254.5 332.5,254.5C 328.434,252.631 324.434,250.464 320.5,248C 318.576,246.25 316.909,244.417 315.5,242.5C 314.589,240.049 313.756,237.715 313,235.5C 317.422,238.964 322.256,241.797 327.5,244C 343.552,248.744 359.552,248.577 375.5,243.5 Z"/></g>
<g><path style="opacity:1" fill="#e68f6c" d="M 401.5,238.5 C 402.695,238.866 403.361,239.699 403.5,241C 402.121,245.639 400.455,250.139 398.5,254.5C 396.833,254.5 395.167,254.5 393.5,254.5C 397.211,249.745 399.878,244.412 401.5,238.5 Z"/></g>
<g><path style="opacity:1" fill="#f2c49a" d="M 155.5,247.5 C 155.5,248.5 155.5,249.5 155.5,250.5C 150.713,251.619 147.047,254.286 144.5,258.5C 141.587,263.422 138.254,268.088 134.5,272.5C 133.571,273.936 132.405,275.269 131,276.5C 130.876,272.622 131.709,268.956 133.5,265.5C 133.457,264.584 133.124,263.917 132.5,263.5C 131.097,259.619 130.097,255.619 129.5,251.5C 133.998,251.67 137.998,250.337 141.5,247.5C 141.34,249.199 141.506,250.866 142,252.5C 142.36,250.392 143.027,248.392 144,246.5C 147.026,243.974 150.193,241.64 153.5,239.5C 154.381,242.13 155.048,244.797 155.5,247.5 Z"/></g>
<g><path style="opacity:1" fill="#efc4c4" d="M 310.5,241.5 C 315.289,246.952 320.955,251.285 327.5,254.5C 325.167,254.5 322.833,254.5 320.5,254.5C 315.673,251.337 312.34,247.004 310.5,241.5 Z"/></g>
<g><path style="opacity:0.592" fill="#3b3d2f" d="M 165.5,247.5 C 162.659,248.669 159.659,249.669 156.5,250.5C 156.833,249.833 157.167,249.167 157.5,248.5C 159.937,248.244 162.271,247.577 164.5,246.5C 165.107,246.624 165.44,246.957 165.5,247.5 Z"/></g>
<g><path style="opacity:0.549" fill="#393a2b" d="M 170.5,248.5 C 175.438,250.438 179.104,253.771 181.5,258.5C 177.762,255.088 174.095,251.755 170.5,248.5 Z"/></g>
<g><path style="opacity:0.847" fill="#290604" d="M 197.5,254.5 C 208.193,254.77 216.86,258.936 223.5,267C 222.722,269.39 221.555,271.557 220,273.5C 199.987,290.005 193.654,286.005 201,261.5C 201.5,260.333 202.333,259.5 203.5,259C 200.578,258.583 197.911,257.583 195.5,256C 196.416,255.722 197.082,255.222 197.5,254.5 Z M 205.5,259.5 C 210.68,260.509 215.013,263.009 218.5,267C 214.619,272.875 209.452,277.375 203,280.5C 202.593,273.365 203.426,266.365 205.5,259.5 Z"/></g>
<g><path style="opacity:0.748" fill="#280604" d="M 327.5,255.5 C 332.159,255.015 333.492,256.848 331.5,261C 326.711,261.845 325.377,260.011 327.5,255.5 Z"/></g>
<g><path style="opacity:1" fill="#76967f" d="M 155.5,247.5 C 156.167,247.833 156.833,248.167 157.5,248.5C 157.167,249.167 156.833,249.833 156.5,250.5C 156.082,251.222 155.416,251.722 154.5,252C 158.5,252.333 162.5,252.667 166.5,253C 167.308,253.308 167.975,253.808 168.5,254.5C 160.047,255.259 152.547,258.259 146,263.5C 145.802,261.618 145.302,259.952 144.5,258.5C 147.047,254.286 150.713,251.619 155.5,250.5C 155.5,249.5 155.5,248.5 155.5,247.5 Z"/></g>
<g><path style="opacity:0.345" fill="#342b24" d="M 127.5,249.5 C 128.167,250.167 128.833,250.833 129.5,251.5C 130.097,255.619 131.097,259.619 132.5,263.5C 130.879,266.171 128.546,268.171 125.5,269.5C 126.957,267.215 128.957,265.382 131.5,264C 129.919,261.002 128.753,257.835 128,254.5C 126.348,253.601 124.848,252.601 123.5,251.5C 125.38,251.771 126.713,251.104 127.5,249.5 Z"/></g>
<g><path style="opacity:1" fill="#bbe6d3" d="M 182.5,264.5 C 183.11,265.391 183.443,266.391 183.5,267.5C 173.89,263.644 163.89,261.31 153.5,260.5C 156.952,258.61 160.618,258.11 164.5,259C 170.726,260.221 176.726,262.055 182.5,264.5 Z"/></g>
<g><path style="opacity:0.839" fill="#2a0604" d="M 344.5,258.5 C 345.497,258.47 346.164,258.97 346.5,260C 345.852,261.44 345.519,262.94 345.5,264.5C 347.167,264.5 348.833,264.5 350.5,264.5C 350.5,265.5 350.5,266.5 350.5,267.5C 348.5,267.833 346.5,268.167 344.5,268.5C 343.833,271.833 343.167,275.167 342.5,278.5C 344.262,278.643 345.929,278.309 347.5,277.5C 348.754,279.259 348.421,280.759 346.5,282C 343.819,284.103 341.319,283.936 339,281.5C 338.842,276.785 339.342,272.119 340.5,267.5C 338.897,267.688 337.563,267.188 336.5,266C 338.25,264.681 340.25,264.181 342.5,264.5C 342.604,262.297 343.27,260.297 344.5,258.5 Z"/></g>
<g><path style="opacity:1" fill="#89b799" d="M 165.5,247.5 C 167.117,248.038 168.784,248.371 170.5,248.5C 174.095,251.755 177.762,255.088 181.5,258.5C 181.833,260.5 182.167,262.5 182.5,264.5C 176.726,262.055 170.726,260.221 164.5,259C 160.618,258.11 156.952,258.61 153.5,260.5C 163.89,261.31 173.89,263.644 183.5,267.5C 183.432,274.978 182.432,282.311 180.5,289.5C 171.5,289.5 162.5,289.5 153.5,289.5C 146.402,285.801 138.735,283.468 130.5,282.5C 132.317,279.85 134.317,277.35 136.5,275C 135.244,274.583 134.577,273.75 134.5,272.5C 138.254,268.088 141.587,263.422 144.5,258.5C 145.302,259.952 145.802,261.618 146,263.5C 152.547,258.259 160.047,255.259 168.5,254.5C 167.975,253.808 167.308,253.308 166.5,253C 162.5,252.667 158.5,252.333 154.5,252C 155.416,251.722 156.082,251.222 156.5,250.5C 159.659,249.669 162.659,248.669 165.5,247.5 Z"/></g>
<g><path style="opacity:0.275" fill="#333123" d="M 181.5,258.5 C 182.87,260.25 183.87,262.25 184.5,264.5C 183.833,264.5 183.167,264.5 182.5,264.5C 182.167,262.5 181.833,260.5 181.5,258.5 Z"/></g>
<g><path style="opacity:0.858" fill="#280704" d="M 260.5,262.5 C 265.584,262.741 268.751,265.408 270,270.5C 270.497,273.146 270.664,275.813 270.5,278.5C 267.715,279.306 264.881,279.972 262,280.5C 260.564,280.441 259.231,280.108 258,279.5C 255.333,283.5 252.667,287.5 250,291.5C 251.406,281.119 254.906,271.453 260.5,262.5 Z M 262.5,266.5 C 267.197,270.506 267.03,273.84 262,276.5C 261.075,275.953 260.242,275.287 259.5,274.5C 260.513,271.812 261.513,269.146 262.5,266.5 Z"/></g>
<g><path style="opacity:0.861" fill="#290604" d="M 281.5,262.5 C 296.434,264.028 298.434,270.194 287.5,281C 284.333,283.124 281,283.624 277.5,282.5C 275.335,275.066 276.668,268.4 281.5,262.5 Z M 283.5,266.5 C 286.358,266.595 288.691,267.762 290.5,270C 288.097,274.581 284.43,277.415 279.5,278.5C 279.92,274.137 281.253,270.137 283.5,266.5 Z"/></g>
<g><path style="opacity:0.83" fill="#290604" d="M 362.5,262.5 C 374.675,262.475 377.508,267.475 371,277.5C 367.177,282.789 362.51,284.122 357,281.5C 355.734,274.144 357.567,267.811 362.5,262.5 Z M 363.5,266.5 C 371.22,267.509 372.22,270.509 366.5,275.5C 361.323,279.935 359.49,278.602 361,271.5C 361.847,269.807 362.68,268.14 363.5,266.5 Z"/></g>
<g><path style="opacity:0.868" fill="#280604" d="M 382.5,262.5 C 384.197,264.305 385.03,266.639 385,269.5C 386.792,265.872 389.625,263.539 393.5,262.5C 396.733,262.9 398.4,264.734 398.5,268C 398.291,269.871 397.291,271.038 395.5,271.5C 394.573,269.887 393.739,268.221 393,266.5C 389.031,270.769 386.365,275.769 385,281.5C 382.778,284.303 380.945,284.137 379.5,281C 381.113,274.933 382.113,268.766 382.5,262.5 Z"/></g>
<g><path style="opacity:0.839" fill="#280604" d="M 401.5,260.5 C 404.665,264.161 407.331,268.161 409.5,272.5C 411.902,269.374 414.069,266.04 416,262.5C 418.933,265.339 419.1,268.506 416.5,272C 418.029,273.582 418.529,275.415 418,277.5C 415.625,281.28 413.625,285.28 412,289.5C 409.676,290.845 407.342,291.178 405,290.5C 404.333,289.167 404.333,287.833 405,286.5C 407.044,283.051 409.544,280.051 412.5,277.5C 409.663,278.135 407.163,277.135 405,274.5C 403.203,269.977 402.036,265.31 401.5,260.5 Z"/></g>
<g><path style="opacity:0.848" fill="#290604" d="M 235.5,263.5 C 241.755,262.261 245.422,264.761 246.5,271C 246.245,272.326 245.578,273.326 244.5,274C 240.812,274.45 237.146,274.283 233.5,273.5C 233.238,274.978 233.571,276.311 234.5,277.5C 237.346,278.708 240.013,280.208 242.5,282C 236.644,284.002 232.144,282.168 229,276.5C 228.509,270.816 230.675,266.482 235.5,263.5 Z M 238.5,266.5 C 239.812,267.145 240.812,268.145 241.5,269.5C 239.235,270.647 236.902,270.814 234.5,270C 236.093,269.051 237.426,267.885 238.5,266.5 Z"/></g>
<g><path style="opacity:0.855" fill="#290604" d="M 304.5,263.5 C 308.869,262.923 312.869,263.757 316.5,266C 313.971,267.062 311.304,267.895 308.5,268.5C 311.167,272.14 312.334,276.14 312,280.5C 308.388,284.301 304.555,284.468 300.5,281C 298.845,279.556 298.178,277.722 298.5,275.5C 301.477,276.071 304.31,277.071 307,278.5C 307.5,278 308,277.5 308.5,277C 305.28,273.059 303.946,268.559 304.5,263.5 Z"/></g>
<g><path style="opacity:0.859" fill="#290604" d="M 325.5,263.5 C 326.649,263.791 327.316,264.624 327.5,266C 326.574,270.204 325.574,274.371 324.5,278.5C 325.93,278.579 327.264,278.246 328.5,277.5C 329.747,279.006 329.747,280.506 328.5,282C 325.699,283.621 323.199,283.455 321,281.5C 321.356,275.256 322.856,269.256 325.5,263.5 Z"/></g>
<g><path style="opacity:1" fill="#c4efdc" d="M 137.5,272.5 C 143.642,272.1 149.642,272.767 155.5,274.5C 155,275.881 154,276.547 152.5,276.5C 147.122,275.607 142.122,274.274 137.5,272.5 Z"/></g>
<g><path style="opacity:0.996" fill="#94bea8" d="M 120.5,276.5 C 121.167,275.167 122.167,274.167 123.5,273.5C 125.582,273.528 127.416,272.861 129,271.5C 130.035,274.649 129.368,277.316 127,279.5C 126.51,278.207 126.343,276.873 126.5,275.5C 124.435,275.517 122.435,275.85 120.5,276.5 Z"/></g>
<g><path style="opacity:0.247" fill="#251f15" d="M 186.5,267.5 C 188.794,270.37 190.128,273.703 190.5,277.5C 188.597,274.47 187.263,271.137 186.5,267.5 Z"/></g>
<g><path style="opacity:1" fill="#698a75" d="M 132.5,263.5 C 133.124,263.917 133.457,264.584 133.5,265.5C 131.709,268.956 130.876,272.622 131,276.5C 132.405,275.269 133.571,273.936 134.5,272.5C 134.577,273.75 135.244,274.583 136.5,275C 134.317,277.35 132.317,279.85 130.5,282.5C 128.428,284.35 127.095,286.683 126.5,289.5C 123.5,289.5 120.5,289.5 117.5,289.5C 121.24,286.357 122.407,282.357 121,277.5C 119.67,278.582 118.17,279.249 116.5,279.5C 117.436,278.026 118.77,277.026 120.5,276.5C 122.435,275.85 124.435,275.517 126.5,275.5C 126.343,276.873 126.51,278.207 127,279.5C 129.368,277.316 130.035,274.649 129,271.5C 127.416,272.861 125.582,273.528 123.5,273.5C 124.6,272.395 125.267,271.062 125.5,269.5C 128.546,268.171 130.879,266.171 132.5,263.5 Z"/></g>
<g><path style="opacity:0.999" fill="#90bc9f" d="M 117.5,289.5 C 113.833,289.5 110.167,289.5 106.5,289.5C 108.812,285.188 112.145,281.855 116.5,279.5C 118.17,279.249 119.67,278.582 121,277.5C 122.407,282.357 121.24,286.357 117.5,289.5 Z"/></g>
<g><path style="opacity:0.944" fill="#5b7d6d" d="M 182.5,264.5 C 183.167,264.5 183.833,264.5 184.5,264.5C 185.906,264.973 186.573,265.973 186.5,267.5C 187.263,271.137 188.597,274.47 190.5,277.5C 190.5,277.833 190.5,278.167 190.5,278.5C 191.114,282.135 191.448,285.802 191.5,289.5C 187.833,289.5 184.167,289.5 180.5,289.5C 182.432,282.311 183.432,274.978 183.5,267.5C 183.443,266.391 183.11,265.391 182.5,264.5 Z"/></g>
<g><path style="opacity:0.208" fill="#312f25" d="M 125.5,269.5 C 125.267,271.062 124.6,272.395 123.5,273.5C 122.167,274.167 121.167,275.167 120.5,276.5C 118.77,277.026 117.436,278.026 116.5,279.5C 112.145,281.855 108.812,285.188 106.5,289.5C 105.761,289.631 105.094,289.464 104.5,289C 105.667,287.5 106.833,286 108,284.5C 113.771,279.374 119.605,274.374 125.5,269.5 Z"/></g>
<g><path style="opacity:1" fill="#c4eedd" d="M 159.5,276.5 C 167.174,277.338 173.841,280.338 179.5,285.5C 179.167,285.833 178.833,286.167 178.5,286.5C 173.068,283.45 167.402,280.95 161.5,279C 160.244,278.583 159.577,277.75 159.5,276.5 Z"/></g>
<g><path style="opacity:0.806" fill="#8ab99a" d="M 130.5,282.5 C 130.414,283.496 130.748,284.329 131.5,285C 137.137,285.829 142.471,287.329 147.5,289.5C 140.5,289.5 133.5,289.5 126.5,289.5C 127.095,286.683 128.428,284.35 130.5,282.5 Z"/></g>
<g><path style="opacity:1" fill="#bce7d4" d="M 130.5,282.5 C 138.735,283.468 146.402,285.801 153.5,289.5C 151.5,289.5 149.5,289.5 147.5,289.5C 142.471,287.329 137.137,285.829 131.5,285C 130.748,284.329 130.414,283.496 130.5,282.5 Z"/></g>
<g><path style="opacity:0.498" fill="#3a3e32" d="M 190.5,278.5 C 191.928,281.413 192.928,284.579 193.5,288C 193.164,289.03 192.497,289.53 191.5,289.5C 191.448,285.802 191.114,282.135 190.5,278.5 Z"/></g>
</svg>
